<?xml version="1.0" encoding="UTF-8" standalone="no" ?>
<!DOCTYPE svg PUBLIC "-//W3C//DTD SVG 1.1//EN" "http://www.w3.org/Graphics/SVG/1.1/DTD/svg11.dtd">
<svg xmlns="http://www.w3.org/2000/svg" xmlns:xlink="http://www.w3.org/1999/xlink" version="1.1" width="1280" height="1024" viewBox="0 0 1280 1024" xml:space="preserve">
<desc>Created with Fabric.js 5.3.0</desc>
<defs>
</defs>
<g transform="matrix(1 0 0 1 640 512)" id="background-logo"  >
<rect style="stroke: none; stroke-width: 0; stroke-dasharray: none; stroke-linecap: butt; stroke-dashoffset: 0; stroke-linejoin: miter; stroke-miterlimit: 4; fill: rgb(36,52,124); fill-rule: nonzero; opacity: 1;"  paint-order="stroke"  x="-640" y="-512" rx="0" ry="0" width="1280" height="1024" />
</g>
<g transform="matrix(2.579989978117665 0 0 2.579989978117665 640.5442088501509 512.1674488769695)" id="logo-logo"  >
<g style=""  paint-order="stroke"   >
		<g transform="matrix(0.5493624755968856 0 0 0.5493624755968856 0.00019279876073596824 74.08072926053686)"  >
<path style="stroke: none; stroke-width: 1; stroke-dasharray: none; stroke-linecap: butt; stroke-dashoffset: 0; stroke-linejoin: miter; stroke-miterlimit: 4; fill: rgb(242,212,155); fill-rule: nonzero; opacity: 1;"  paint-order="stroke"  transform=" translate(-499.5846099999999, -634.4841614499999)" d="M 415.3822937 676.0321655 C 415.7658691 676.392334 416.1248779 676.7803955 416.4834595 677.1685791 L 427.7496949 677.1685791 C 427.8653565 680.3135376 428.0746156 683.432373 428.36758430000003 686.5209351 C 428.4715577 686.5568847999999 428.57745370000004 686.5899658999999 428.6809693 686.6264649 C 432.931305 688.1268311 437.10031130000004 689.8416138 441.18670660000004 691.7380372 C 440.5288087 687.0029298000001 440.0913087 682.1370851 439.89431770000004 677.1685792 L 468.14337170000005 677.1685792 C 468.28021250000006 684.862671 468.68157970000004 693.567505 469.42315690000004 702.5609132 C 469.8415529 702.6495362 470.2601015 702.7372438 470.67776510000004 702.8297731 C 474.18695090000006 703.6076662 478.23529070000006 704.6697389 481.7279055 705.3112794 C 480.9124453 696.3577272 480.4147951 686.9051515 480.2699587 677.1685792 L 518.8359987 677.1685792 C 518.7067262 685.8570557999999 518.2963258 694.3196412 517.6310426 702.4046632 C 521.6978761 701.6690675 525.7769777 700.9904786 529.8605348 700.3319703 C 530.4889528 692.1325074 530.8371582999999 684.2251587999999 530.9625856 677.1685792 L 559.211609 677.1685792 C 558.9619141999999 683.4719239 558.3244629999999 689.6095581999999 557.340149 695.5244752 C 559.5122681 695.0684205 561.678772 694.5856324 563.8372803 694.0650636 C 565.9210816 693.5625001000001 567.9959107 693.022278 570.0581665 692.4379884 C 570.7238768999999 687.4340822 571.1661376999999 682.3369142 571.3562622 677.1685792 L 594.6525267999999 677.1685792 C 594.5626219999999 678.5906983 594.4300536999999 680.0010987 594.2782591999999 681.4058229 C 594.6870115999999 681.1187135 595.1041258999999 680.8420411999999 595.5045775999998 680.5451051 C 595.3695067999998 680.5704347 598.1180419999998 678.2559205 598.5835570999998 677.8201905 C 600.1405638999997 676.3627319999999 601.6071166999998 674.8241578 603.0437621999998 673.2484741999999 C 604.2019042999998 671.9780274 605.5413817999998 670.9610595999999 606.9867553999999 670.1582031999999 C 606.4769897999998 611.3462524999999 558.4830932999998 563.6570434999999 499.5529784999999 563.6570434999999 C 441.5871886999999 563.6570434999999 394.2032164999999 609.7984008999998 392.1824645999999 667.2802734999999 C 400.6555786 667.2351685 409.3201904 670.3408813 415.3822937 676.0321655 z M 468.1433716 665.0358276 L 439.8943176 665.0358276 C 440.4073791 652.0881958 442.54721070000005 639.8388672 445.99465940000005 628.7946777 C 451.51956170000005 630.5117798 457.69467160000005 632.1304931 464.46206660000007 633.4555664 C 466.2031860000001 633.7964476999999 468.0260620000001 634.1134033 469.88717650000007 634.4163208 C 468.8414001 645.2480469 468.3065796 655.8578491 468.1433716 665.0358276 z M 530.9625854 665.0358276 C 530.7971801 655.7352904999999 530.2501831 644.9644774999999 529.1767578 633.9825439 C 536.8121948 632.6467895 544.7432251 630.7546997 552.9156494 628.1866454999999 C 556.4758301 639.3890991 558.6891479 651.848938 559.2116089 665.0358276 L 530.9625854 665.0358276 z M 578.6871948 618.038147 C 587.836853 631.638794 593.5584717 647.7184449 594.6525268 665.0358277 L 571.3562622000001 665.0358277 C 570.8284302000001 650.6840821000001 568.4255981000001 636.8570557 564.3396606000001 624.1979981000001 C 569.0593262 622.3848267 573.843689 620.3410034 578.6871948 618.038147 z M 571.0889282 608.2189331 C 567.4389038 609.9000854 563.7775879000001 611.4465941999999 560.1072387 612.8705444 C 557.5432128 606.9105834999999 554.5750732 601.2921142 551.2097778 596.1116943 C 549.1069946 592.8748168999999 546.8782959 589.8912964 544.5607299 587.1121215 C 554.6243896 592.5267334 563.5958252 599.7053223 571.0889282 608.2189331 z M 548.6848755 616.8748169 C 541.7496947999999 619.0509033000001 534.7843018 620.7722168 527.7957764 622.0367432 C 525.6829224 606.3128662 522.3807984 591.1134034 517.4661866 580.1644287 C 530.2539062 586.5792236 541.1931152 599.6800537 548.6848755 616.8748169 z M 487.4770508 600.8907471 C 492.6986695 580.0499268 498.33081059999995 575.789856 499.5529785 575.789856 C 500.77514640000004 575.789856 506.4073181 580.0499268 511.6289062 600.8907471 C 513.3454589 607.74292 514.776123 615.4429322 515.9035034 623.75177 C 505.03228759999996 624.9104004 494.1151428 624.9640502999999 483.17816159999995 623.9225464 C 484.309082 615.5477295 485.7486572 607.7902832 487.4770508 600.8907471 z M 498.1762085 636.7026367 C 504.2366638 636.7026367 510.6154175 636.3927001999999 517.2674561 635.6791382 C 518.1514893 644.9887085 518.6845093000001 654.8584595 518.8359986 665.0358277 L 480.26995860000005 665.0358277 C 480.42013560000004 654.9515381 480.94442760000004 645.1688843000001 481.81396490000003 635.9342652 C 486.960907 636.4119873 492.4157715 636.7026367 498.1762085 636.7026367 z M 481.6397705 580.1644287 C 476.6915893 591.1881103000001 473.3777161 606.5204468000001 471.2669067 622.3585815 C 469.9501037 622.1370849 468.6333007 621.9038086 467.3163452 621.6503906 C 461.0594787 620.4461670000001 455.3295898 618.9609985000001 450.1950683 617.3811035 C 457.6915588 599.9344482 468.7254333 586.6427002 481.6397705 580.1644287 z M 454.5452271 587.1121216 C 452.2276612 589.8912964 449.9989625 592.8748169 447.89617919999995 596.1116944 C 444.4338989 601.4416505 441.3970032 607.239441 438.78338619999994 613.3920289 C 434.2677916999999 611.6140748 430.55938719999995 609.9047852 427.7636107999999 608.5112306 C 435.3074951 599.8699341 444.3671265 592.5882568 454.5452271 587.1121216 z M 434.5703735 624.7946777 C 430.6013183 637.2904662999999 428.269226 650.9103392999999 427.74969480000004 665.0358276 L 404.45343020000007 665.0358276 C 405.5402222000001 647.8322754 411.1990357000001 631.8539427999999 420.2441406000001 618.3104857999999 C 423.5451355 620.043457 428.3809204 622.3717651 434.5703735 624.7946777 z" stroke-linecap="round" />
</g>
		<g transform="matrix(0.5493624755968856 0 0 0.5493624755968856 0.000184393514985004 -73.25648796387591)"  >
<path style="stroke: none; stroke-width: 1; stroke-dasharray: none; stroke-linecap: butt; stroke-dashoffset: 0; stroke-linejoin: miter; stroke-miterlimit: 4; fill: rgb(242,212,155); fill-rule: nonzero; opacity: 1;"  paint-order="stroke"  transform=" translate(-499.5845947000001, -366.2874356646612)" d="M 499.5845947 410.1589355 C 499.5845947 410.1589355 514.4560547 398.0522155 549.1560669 393.3578186 L 551.6345825000001 323.1882935 C 551.6345825000001 323.1882935 522.4426269 317.2584839 499.5845947000001 338.25994879999996 C 476.72656250000006 317.25848399999995 447.5346069000001 323.1882935 447.5346069000001 323.1882935 L 450.01312250000007 393.3578186 C 484.7131653 398.0522156 499.5845947 410.1589355 499.5845947 410.1589355 z" stroke-linecap="round" />
</g>
		<g transform="matrix(0.5493624755968856 0 0 0.5493624755968856 -18.069017733491194 -71.48893483525819)"  >
<path style="stroke: none; stroke-width: 1; stroke-dasharray: none; stroke-linecap: butt; stroke-dashoffset: 0; stroke-linejoin: miter; stroke-miterlimit: 4; fill: rgb(242,212,155); fill-rule: nonzero; opacity: 1;"  paint-order="stroke"  transform=" translate(-466.69337455000004, -369.5048981)" d="M 443.7691345 398.8267212 L 440.2252502 320.3353882 L 433.80215450000003 324.1108704 L 437.6781005 404.98678590000003 C 483.41589350000004 406.5765076 499.58459460000006 418.674408 499.58459460000006 418.674408 C 489.5067749 403.3971252 443.7691345 398.8267212 443.7691345 398.8267212 z" stroke-linecap="round" />
</g>
		<g transform="matrix(0.5493624755968856 0 0 0.5493624755968856 18.069394870830763 -71.48893483525819)"  >
<path style="stroke: none; stroke-width: 1; stroke-dasharray: none; stroke-linecap: butt; stroke-dashoffset: 0; stroke-linejoin: miter; stroke-miterlimit: 4; fill: rgb(242,212,155); fill-rule: nonzero; opacity: 1;"  paint-order="stroke"  transform=" translate(-532.47583005, -369.5048981)" d="M 558.9439697 320.3353882 L 555.4000854000001 398.8267212 C 555.4000854000001 398.8267212 509.6624450000001 403.3971253 499.5845947000001 418.674408 C 499.5845947000001 418.674408 515.7532959000001 406.5765076 561.4910888 404.98678590000003 L 565.3670654 324.1108704 L 558.9439697 320.3353882 z" stroke-linecap="round" />
</g>
		<g transform="matrix(0.5493624755968856 0 0 0.5493624755968856 59.4657552346643 -71.48893483525819)"  >
<g style=""  paint-order="stroke"   >
		<g transform="matrix(1 0 0 1 0 -22.680419900000004)"  >
<path style="stroke: none; stroke-width: 1; stroke-dasharray: none; stroke-linecap: butt; stroke-dashoffset: 0; stroke-linejoin: miter; stroke-miterlimit: 4; fill: rgb(242,212,155); fill-rule: nonzero; opacity: 1;"  paint-order="stroke"  transform=" translate(-607.8292846500001, -346.8244782)" d="M 617.1533203 364.5519104 C 619.2068481 363.5115967 620.9378662 361.9428711 622.095459 359.9155884 C 622.7896729 358.6997986 623.272461 357.37197879999997 623.5916748 356.0111389 C 627.1998901 340.6288452 620.9963379 335.3115234 620.9963379 335.3115234 C 620.9963379 335.3115234 623.0852661 342.6545105 618.5908202999999 348.9213562 C 618.5908202999999 348.9213562 619.5403441999999 343.4774475 617.1349486999999 337.9701538 C 614.7294921999999 332.4629517 608.6525267999999 326.5758667 611.1845702999999 320.8153992 C 611.1845702999999 320.8153992 602.5137328999999 325.6446839 604.9191893999999 333.6839295 C 606.5866699 339.25683599999996 599.3196410999999 345.9652405 597.2036743 348.18618779999997 C 596.8865967 344.0559388 597.456543 339.1242676 600.232605 334.11999519999995 C 600.232605 334.11999519999995 589.1887207000001 340.78109749999993 591.1791992000001 352.59988409999994 C 591.5762939000001 354.95779429999993 591.9958496 357.21878059999995 593.2407837000001 359.29867559999997 C 594.3571167000001 361.16387949999995 595.9268799 362.7605286 597.7854614 363.8899537 C 598.2208252 364.1544495 598.6552734 364.36355599999996 599.0922851 364.55191049999996 L 583.6431274 364.55191049999996 L 583.6431274 372.8335572 L 632.0154419 372.8335572 L 632.0154419 364.55191049999996 L 617.1533203 364.55191049999996 z" stroke-linecap="round" />
</g>
		<g transform="matrix(1 0 0 1 0.00003054999990581564 27.32659910000001)"  >
<polygon style="stroke: none; stroke-width: 1; stroke-dasharray: none; stroke-linecap: butt; stroke-dashoffset: 0; stroke-linejoin: miter; stroke-miterlimit: 4; fill: rgb(242,212,155); fill-rule: nonzero; opacity: 1;"  paint-order="stroke"  points="-12.234283499999947,-21.36289979999998 -16.939727800000014,-21.36289979999998 -16.939727800000014,-13.081222500000024 -11.801055900000051,-13.081222500000024 -9.999176000000034,21.36289979999998 9.99911499999996,21.36289979999998 11.800994899999978,-13.081222500000024 16.939727800000014,-13.081222500000024 16.939727800000014,-21.36289979999998 12.234222400000021,-21.36289979999998 " />
</g>
</g>
</g>
		<g transform="matrix(0.5493624755968856 0 0 0.5493624755968856 -59.46538644763433 -71.48893483525819)"  >
<g style=""  paint-order="stroke"   >
		<g transform="matrix(1 0 0 1 0 -22.680419900000004)"  >
<path style="stroke: none; stroke-width: 1; stroke-dasharray: none; stroke-linecap: butt; stroke-dashoffset: 0; stroke-linejoin: miter; stroke-miterlimit: 4; fill: rgb(242,212,155); fill-rule: nonzero; opacity: 1;"  paint-order="stroke"  transform=" translate(-391.33990475, -346.8244782)" d="M 382.0158691 364.5519104 C 379.96240229999995 363.5115967 378.2313537 361.9428711 377.0737304 359.9155884 C 376.37954709999997 358.6997986 375.896759 357.37197879999997 375.5775451 356.0111389 C 371.9693298 340.6288452 378.172882 335.3115234 378.172882 335.3115234 C 378.172882 335.3115234 376.08392330000004 342.6545105 380.57836910000003 348.9213562 C 380.57836910000003 348.9213562 379.62884520000006 343.4774475 382.0343017 337.9701538 C 384.4397277 332.4629517 390.5166931 326.5758667 387.9846496 320.8153992 C 387.9846496 320.8153992 396.6554565 325.6446839 394.24999990000003 333.6839295 C 392.58254990000006 339.25683599999996 399.8495482 345.9652405 401.96551500000004 348.18618779999997 C 402.2826537 344.0559388 401.7126769 339.1242676 398.93661490000005 334.11999519999995 C 398.93661490000005 334.11999519999995 409.98049920000005 340.78109749999993 407.99005120000004 352.59988409999994 C 407.59292600000003 354.95779429999993 407.17333980000006 357.21878059999995 405.92840570000004 359.29867559999997 C 404.8121032 361.16387949999995 403.24234000000007 362.7605286 401.383728 363.8899537 C 400.9483947 364.1544495 400.513916 364.36355599999996 400.0769043 364.55191049999996 L 415.526062 364.55191049999996 L 415.526062 372.8335572 L 367.1537475 372.8335572 L 367.1537475 364.55191049999996 L 382.0158691 364.55191049999996 z" stroke-linecap="round" />
</g>
		<g transform="matrix(1 0 0 1 -0.00001520000006394184 27.32659910000001)"  >
<polygon style="stroke: none; stroke-width: 1; stroke-dasharray: none; stroke-linecap: butt; stroke-dashoffset: 0; stroke-linejoin: miter; stroke-miterlimit: 4; fill: rgb(242,212,155); fill-rule: nonzero; opacity: 1;"  paint-order="stroke"  points="12.234298650000028,-21.36289979999998 16.939712550000024,-21.36289979999998 16.939712550000024,-13.081222500000024 11.801071150000041,-13.081222500000024 9.999191250000024,21.36289979999998 -9.99909974999997,21.36289979999998 -11.800979649999931,-13.081222500000024 -16.939712549999967,-13.081222500000024 -16.939712549999967,-21.36289979999998 -12.234207149999975,-21.36289979999998 " />
</g>
</g>
</g>
		<g transform="matrix(0.5493624755968856 0 0 0.5493624755968856 0 -75.78417385941904)"  >
<path style="stroke: none; stroke-width: 1; stroke-dasharray: none; stroke-linecap: butt; stroke-dashoffset: 0; stroke-linejoin: miter; stroke-miterlimit: 4; fill: rgb(242,212,155); fill-rule: nonzero; opacity: 1;"  paint-order="stroke"  transform=" translate(-499.58425905, -361.6863098)" d="M 679.288147 414.0047607 L 679.288147 364.60363770000004 L 632.6829223999999 309.36791990000006 L 716.3255615999999 309.36791990000006 C 725.6729126999999 309.36791990000006 733.2783203999999 316.9726562000001 733.2783203999999 326.32000730000004 C 733.2783203999999 335.6673584 725.6729126999999 343.27276610000007 716.3255615999999 343.27276610000007 L 692.3424683 343.27276610000007 L 692.3424683 360.11468500000007 L 716.3255615999999 360.11468500000007 C 734.9605102999999 360.11468500000007 750.1202392999999 344.95495600000004 750.1202392999999 326.32000730000004 C 750.1202392999999 307.68573000000004 734.9605102999999 292.52600100000006 716.3255615999999 292.52600100000006 L 618.4725342999999 292.52600100000006 L 587.0258179999998 292.52600100000006 L 412.1427612 292.52600100000006 L 380.6966552 292.52600100000006 L 282.8429565 292.52600100000006 C 264.2087402 292.52600100000006 249.04901120000002 307.6857300000001 249.04901120000002 326.32000730000004 C 249.04901120000002 344.95495600000004 264.2087402 360.11468500000007 282.8429565 360.11468500000007 L 306.8260498 360.11468500000007 L 306.8260498 343.27276610000007 L 282.8429565 343.27276610000007 C 273.4956054 343.27276610000007 265.8909301 335.66735840000007 265.8909301 326.32000730000004 C 265.8909301 316.9726562 273.4956054 309.36791990000006 282.8429565 309.36791990000006 L 366.486267 309.36791990000006 L 319.8810424 364.60363770000004 L 319.8810424 414.0047607 L 213.8737793 414.0047607 L 213.8737793 430.8466186 L 785.2947388 430.8466186 L 785.2947388 414.0047607 L 679.288147 414.0047607 z M 662.446228 414.0047607 L 336.7229614 414.0047607 L 336.7229614 370.7599487 L 388.52307129999997 309.3679199 L 412.1427612 309.3679199 L 587.0258178 309.3679199 L 610.6461181000001 309.3679199 L 662.4462280000001 370.7599487 L 662.4462280000001 414.0047607 z" stroke-linecap="round" />
</g>
		<g transform="matrix(0.5493624755968856 0 0 0.5493624755968856 -2.74681042356e-8 71.7676999757609)"  >
<path style="stroke: none; stroke-width: 1; stroke-dasharray: none; stroke-linecap: butt; stroke-dashoffset: 0; stroke-linejoin: miter; stroke-miterlimit: 4; fill: rgb(242,212,155); fill-rule: nonzero; opacity: 1;"  paint-order="stroke"  transform=" translate(-499.584259, -630.27377325)" d="M 213.8737793 563.4388428 L 322.2609863 563.4388428 C 328.4203491 601.2662964 346.48065180000003 636.0612793 374.42681880000004 663.1950684 C 408.1388549 695.9255982 452.58679190000004 713.9505616 499.58496090000006 713.9505616 C 546.5823974000001 713.9505616 591.0303955 695.9255982 624.7417602 663.1950684 C 652.6884155 636.0614624 670.7481689 601.2659913 676.9075317 563.4388428 L 785.2947387 563.4388428 L 785.2947387 546.5969848999999 L 213.8737793 546.5969848999999 L 213.8737793 563.4388428 z M 356.3352661 563.4388428 C 358.5750732 575.8200684 364.91131590000003 600.0164185 382.2765503 623.4136963 C 382.2765503 623.4136963 370.7034912 588.0231934 369.9475098 563.4388428 L 629.2216797 563.4388428 C 628.4657593 588.0231934 616.8926392 623.4136963 616.8926392 623.4136963 C 634.2578735999999 600.0164185 640.5941773 575.8200684 642.8339234 563.4388428 L 659.84729 563.4388428 C 646.1967773 640.0653076 579.8967895000001 697.1086425999999 499.58428950000007 697.1086425999999 C 419.27258300000005 697.1086425999999 352.97259520000006 640.0658569999999 339.32147210000005 563.4388428 L 356.3352661 563.4388428 z" stroke-linecap="round" />
</g>
		<g transform="matrix(0.5493624755968856 0 0 0.5493624755968856 0.0001005608012292214 -129.48816155756435)"  >
<rect style="stroke: none; stroke-width: 0; stroke-dasharray: none; stroke-linecap: butt; stroke-dashoffset: 0; stroke-linejoin: miter; stroke-miterlimit: 4; fill: rgb(242,212,155); fill-rule: nonzero; opacity: 1;"  paint-order="stroke"  x="-196.6305847" y="-8.8633423" rx="0" ry="0" width="393.2611694" height="17.7266846" />
</g>
		<g transform="matrix(0.5493624755968856 0 0 0.5493624755968856 0.0001005608012292214 -150.06707401983593)"  >
<rect style="stroke: none; stroke-width: 0; stroke-dasharray: none; stroke-linecap: butt; stroke-dashoffset: 0; stroke-linejoin: miter; stroke-miterlimit: 4; fill: rgb(242,212,155); fill-rule: nonzero; opacity: 1;"  paint-order="stroke"  x="-146.5048523" y="-8.86331175" rx="0" ry="0" width="293.0097046" height="17.7266235" />
</g>
		<g transform="matrix(0.5493624755968856 0 0 0.5493624755968856 55.29472595437795 97.01830513532539)"  >
<path style="stroke: none; stroke-width: 1; stroke-dasharray: none; stroke-linecap: butt; stroke-dashoffset: 0; stroke-linejoin: miter; stroke-miterlimit: 4; fill: rgb(242,212,155); fill-rule: nonzero; opacity: 1;"  paint-order="stroke"  transform=" translate(-600.2367943260941, -676.2372423277333)" d="M 709.1575317 585.2670898 C 709.8994751 585.1260376 710.6182251 584.9079589 711.2462768 584.4819336 C 711.6802368 584.1876831000001 712.0561523 583.8077393000001 712.3884887 583.3935547000001 C 713.4657592000001 582.0504151000001 714.0774535 580.3764038 714.7505492 578.7688599 C 715.4238280000001 577.1611939000001 716.1996459000001 575.359314 717.5159911000001 574.2742310000001 C 716.7957152 574.3942261000001 716.0737304 574.5145874000001 715.3721312 574.7203370000001 C 714.5744627 574.9542237000001 713.8095091 575.2966920000001 713.0733641 575.6921998000001 C 711.4083250000001 576.5869142000001 709.8878172000001 577.7666627000001 708.5721434000001 579.1579591000001 C 707.7810057 577.3720704000001 706.7301634 575.7103273000001 705.4524535 574.2631837000001 C 704.8872680000001 573.6228639000001 704.2777098 573.0219117000001 703.6030272 572.5110475000001 C 703.0092772 572.0617067000002 702.3692626000001 571.6851198000002 701.7307127 571.3096925000001 C 702.6207884 572.8096925000001 702.7736815000001 574.786316 702.8919065 576.5427858 C 703.0104368 578.2991945 703.0495603 580.0957033000001 703.6326292 581.7510378000001 C 703.8124998 582.2615358 704.0441282 582.7557985000001 704.3578489 583.190552 C 704.8770139000001 583.9103396 705.592346 584.4207156 706.3529051 584.8600466 C 705.9190062 586.3388064000001 705.5155028 587.7651369 705.1834715 589.0828249 C 704.5863035 591.4519045 703.9450682 593.6379396 703.2668455 595.7667849 C 702.4425047000001 594.0911256999999 701.434326 592.5142824999999 700.2546995 591.0883791 C 699.566406 590.2562868 698.8206785 589.4719851 697.9888914 588.7985842 C 697.2572019 588.2061159000001 696.4641111000001 587.7036135000001 695.6729124000001 587.2024538000001 C 696.7375486000001 589.1331179 696.8529051 591.6332399 696.9334715000001 593.8542482 C 697.0139769000001 596.0751955000001 696.9930418000001 598.3432008 697.6638792000001 600.4564821 C 697.8708494000001 601.1083376 698.1440428000001 601.7418215 698.5228880000001 602.3038332 C 699.0204466000001 603.0421755 699.6783445000001 603.6210939 700.3985594000001 604.1239016 C 700.0056151000001 605.2259524 699.6069334000001 606.3438722999999 699.196533 607.5102541 C 698.4349974 609.6745607 697.4974974 611.8791506 696.4904783000001 614.0869143 C 695.9995725000001 612.3066408999999 695.3758543 610.5661623 694.5863645000001 608.9050906 C 693.9733274 607.6156619 693.2727659000001 606.3668825999999 692.4281614 605.2288211 C 691.6850584 604.2277835 690.8356931000001 603.3190921 689.9885252 602.4130252 C 690.7339476000001 605.2215579 690.0953367000001 608.4241946 689.5000608 611.2615359 C 688.9047849 614.0988772000001 688.1658933 616.9609378 688.3541868 619.8651126 C 688.4123533 620.7608646 688.5602415 621.6562503 688.864868 622.4974979 C 689.305786 623.7160648 690.0516356 624.7591556 690.9088133 625.716431 C 690.7224119 626.1134646999999 690.5299681 626.5145877 690.3502806 626.9070438 C 688.9604491 629.9429935 687.5269163 632.4971317 686.0283202 635.0111698 C 685.6489867 633.2084964999999 685.137329 631.4357914 684.4713744000001 629.7238163 C 683.9201659 628.306702 683.272766 626.9254765 682.4641723000001 625.6493534 C 681.7528076000001 624.5267948 680.9217529000001 623.4932865 680.0925903000001 622.4626469 C 680.6685180000001 625.4996952 679.7464599000001 628.8381962 678.8981323 631.7935185 C 678.0501098000001 634.7487797 677.0479126 637.7182622 677.0252685 640.809998 C 677.0183105 641.7636113 677.1068115 642.7243046 677.3653564 643.6408696 C 677.6950073 644.8094487 678.2838134 645.8548589 678.989624 646.8292240999999 C 676.5840454 650.8440555999999 674.0403442 654.7901006 671.3982544 658.6286015 C 671.2353516000001 656.1504520999999 670.8565064000001 653.686707 670.2072754000001 651.2932132999999 C 669.7698975000001 649.6809695999999 669.2235108000001 648.0954594 668.4892578 646.6040042999999 C 667.8433838 645.2921147 667.0565185 644.06189 666.2714844 642.8350224 C 666.548584 646.2139897 665.1576537999999 649.7315067999999 663.8916626 652.841248 C 662.6255493 655.9509892 661.1899414000001 659.0566411 660.8082275 662.419373 C 660.6904907 663.4565434 660.6760864 664.5135501999999 660.8519897 665.5439458 C 661.1416015 667.2382817 661.9244995 668.7639775 662.8579711 670.2034917 C 661.3168944 672.1563115 659.7556151 674.0899663 658.1591796 675.9773564 C 657.0839843 677.2479863 655.991455 678.5090947 654.883789 679.7587285 C 655.0385742 676.7645878999999 654.9461669 673.7553105 654.5275878 670.7839359999999 C 654.2341308 668.7016606 653.8005981 666.6339725999999 653.1177978 664.6513676 C 652.5174559999999 662.9072269999999 651.7283325 661.2407231 650.9409178999999 659.5788577999999 C 650.7581175999999 663.8331913 648.4727783 667.9743045999999 646.4069824 671.6291507999999 C 644.3412474999999 675.2839969999999 642.0646362 678.9047244999999 641.062561 683.0260013999999 C 640.753479 684.2971805999999 640.5700072999999 685.6107791999999 640.628601 686.9237674999999 C 640.7204589 688.9901736999999 641.397766 690.9427493999999 642.2789306 692.8179325 C 639.2168578 695.7379154 636.0653076 698.5769657 632.8474731 701.3023685 C 633.3599243 698.0703738999999 633.5662841 694.7835085999999 633.3953857 691.506409 C 633.2857666 689.4061282 633.0352783000001 687.3069461 632.5289917 685.2683718999999 C 632.0837402 683.4750979999999 631.4436646 681.7409061 630.8049927 680.0113528999999 C 630.2493286 684.2272952999999 627.6087646999999 688.1284794 625.2296143 691.5667727999999 C 622.8502808 695.0050051999998 620.2639771 698.3890383999999 618.9038085999999 702.3938601999998 C 618.4840697999999 703.6290286999998 618.1860351999999 704.9185793999999 618.1290893999999 706.2307131999999 C 618.0438842999998 708.1923220999998 618.4974975999999 710.1018069999999 619.1543579999999 711.9603274999998 C 617.3709717999999 713.2354128999998 615.5780640999999 714.4912722999999 613.7684326999998 715.7012942999999 C 611.4680786999999 717.2387088999999 609.1212768999999 718.7245486999999 606.7532959999999 720.1740115999999 C 608.3023682999999 715.9501345999998 609.3077393999998 711.5046389999999 609.6908569999998 706.9895022999999 C 609.8836670999998 704.7186282999999 609.9246826999998 702.4260867999999 609.6817016999998 700.1571658999999 C 609.4681396999998 698.1612552999999 609.0364990999999 696.1972049999998 608.6055908999998 694.2384646999999 C 607.3849487999998 698.6712039999999 603.9693603999998 702.4285891999999 600.9031982999998 705.7318118999999 C 597.8370361999997 709.0350955999999 594.5563964999998 712.2465213999999 592.5019531999998 716.3225100999999 C 591.8683471999998 717.5796512 591.3573608999998 718.9147341999999 591.1021118999997 720.3131716999999 C 590.6056518999998 723.0316775999999 591.0960693999997 725.8028567999999 591.7962646999997 728.5101931999999 C 587.4615478999997 730.6922610999999 583.0396728999997 732.7329104999999 578.5891113999998 734.5905154999999 C 578.5885009999997 734.5897831 578.5889892999998 734.5903933999999 578.5883789999998 734.589661 C 581.0761719999998 730.035767 582.9729004999998 725.1256717 584.1569824999998 720.0200808999999 C 584.7466430999998 717.4786991 585.1672973999998 714.8855593999999 585.2612304999998 712.2684939999999 C 585.3439330999997 709.9663089 585.1735839999998 707.6612551999999 585.0033569999998 705.3624270999999 C 582.8927002999998 710.1725466999999 578.3967285999998 713.8242800999999 574.3723144999998 717.0233767999998 C 570.3479003999998 720.2223513999999 566.0944824999998 723.2789919999998 563.0941162999998 727.5352786999998 C 562.1686401999998 728.8480838999998 561.3698730999997 730.2711795999999 560.8516235999998 731.8118899999998 C 559.8464965999998 734.7991946999998 559.9487915999998 738.0216067999999 560.3009643999998 741.2097170999998 C 560.2988281999998 741.2129519999999 560.2974853999998 741.2150271999998 560.2953491999998 741.2182619999998 C 553.9812622999998 743.1699221999997 547.4929809999998 744.8182375999997 541.0039673999999 746.1434328999998 C 544.8912354999999 741.5292971999997 548.2038574999998 736.3853151999998 550.7743530999999 730.8474123999997 C 552.1086426999999 727.9723513999998 553.2536621999999 724.9898073999997 554.0133667999999 721.8901979999997 C 554.6815796999998 719.1635744999998 555.0473633999999 716.3649904999997 555.4114990999999 713.5738527999997 C 551.6940308 718.7459718999997 545.4056396999999 721.8889772999997 539.7940064 724.6192018999997 C 534.1823731 727.3493654999996 528.3315429999999 729.8473512999997 523.6851806999999 734.1173707999997 C 522.2521363 735.4344483999996 520.9434815 736.9174195999997 519.9416504 738.6166993999997 C 518.0066528 741.8988648999997 517.3302001999999 745.7571412999997 516.9627075 749.6439210999997 C 516.9619751 749.6446534999997 516.9614868 749.6450807999997 516.9606933 749.6458131999997 C 514.5358276 749.7492677999996 512.0200195 749.7943727999997 509.4240417 750.3932496999997 C 505.19000239999997 751.3702393999997 501.1635131 753.4967042999997 497.45660399999997 756.7137452999997 C 491.2062378 762.1395264999996 486.3132629 769.0651246999997 483.1801758 776.8837891999997 C 482.5287476 778.5093995999997 483.3585816 780.3566285999997 484.99966429999995 780.9680787999997 L 484.99966429999995 780.9680787999997 C 486.5798644999999 781.5568238999997 488.33544919999997 780.7807008999997 488.97000119999996 779.2183228999997 C 491.72503659999995 772.4350586999998 495.99108879999994 766.4259644999997 501.42556759999997 761.7087403999998 C 504.37365719999997 759.1497193999998 507.5270996 757.4699708999998 510.7979736 756.7153321999998 C 512.5981445 756.3004761999998 514.5042724 756.2244263999999 516.5238037 756.1439210999998 C 517.0780029 756.1223756999998 517.6421509 756.0995484999999 518.2123413 756.0695802999999 C 520.0012207000001 759.5252687999998 522.0643921000001 762.8342897999999 525.0808105000001 765.1109010999999 C 526.6388549000001 766.2868654999999 528.3995971 767.1422120999998 530.2136840000001 767.7951051999999 C 536.0955199000001 769.9122316999999 542.4306640000001 769.9182740999998 548.6311034 770.2328492999999 C 554.831726 770.5475465999999 561.8111571000001 770.9773560999998 567.1704100000001 774.2933350999999 C 565.7951659 771.8579103 564.4160155000001 769.4161988999999 562.7840575 767.1600342999999 C 560.9287108 764.5950318999999 558.7609862 762.2899170999999 556.4584349 760.1586304999998 C 553.0304564 756.9859009999999 549.2774657 754.2097168999999 545.3010863000001 751.8461914999998 C 550.7538451 750.6466064999998 556.1885985 749.2319946999999 561.5070800000001 747.6058350999998 C 562.0667724000001 747.4346924999998 562.6246947000001 747.2463990999998 563.1841430000001 747.0701294999998 C 564.961853 749.1256714999997 566.9218749 750.9759522999998 569.3243408000001 752.0780029999997 C 570.7607422000001 752.7369384999997 572.3062134 753.1027832999997 573.8609009 753.2970581999997 C 578.9008179 753.9270019999997 583.9539185000001 752.7860718999997 588.9506226000001 751.9163208999997 C 593.9473877 751.0466919999998 599.5844117 750.1282959999998 604.4055176 751.8118286999998 C 602.9068604 750.1121826999997 601.4037476000001 748.4082031999998 599.7298584 746.8983765999998 C 597.8268433000001 745.1818848999998 595.7174683000001 743.7298584999998 593.5292969 742.4412842999998 C 590.9697876 740.9340210999998 588.2902832 739.6587525999997 585.5328369 738.6110230999998 C 588.961853 737.0815430999997 592.3592529 735.4503174999998 595.7046509 733.7396241999998 C 597.2873535 735.0158692999997 598.9829102 736.0939332999998 600.8972779000001 736.6365968999997 C 602.2144166 737.0100099999997 603.5890504 737.1159669999997 604.9503785 737.0728151999997 C 609.3637696000001 736.9329836999997 613.5692139 735.2646486999997 617.7599488000001 733.8377687999997 C 621.9506837000001 732.4110109999997 626.6859132000001 730.8554079999997 631.0414429000001 731.6535646999997 C 629.5419312000001 730.3913576999997 628.038208 729.1260377999997 626.4114991000001 728.0512697999998 C 624.5621949000001 726.8293459999998 622.5681763000001 725.8633425999998 620.5265504000001 725.0488893999998 C 618.4671632000002 724.2276002999998 616.3511354000001 723.5727540999998 614.2041017000001 723.0659181999998 C 615.1810304000002 722.4357911999998 616.1606447000001 721.8085939999999 617.1247560000002 721.1641237999999 C 619.0602418000002 719.8698122999998 620.9772951000001 718.5247804999999 622.8833620000001 717.1585085999999 C 624.8214724000002 718.4279787999999 626.8632814000001 719.5026857999999 629.1051027000002 719.7897951999998 C 630.3523561000002 719.9496462999998 631.6183473000002 719.8573000999999 632.8533327000002 719.6306154999999 C 636.8576052000002 718.8957521999998 640.4805300000003 716.7937013999999 644.1201174000003 714.9141847999998 C 647.7597658000003 713.0347902999998 651.8795778000002 710.9628908999998 655.9490969000002 711.0925294999998 C 654.4240725000002 710.1461183999999 652.8947756000002 709.1974488999998 651.2773440000002 708.4398194999999 C 649.4388430000002 707.5783082999999 647.5004275000002 706.9704590999999 645.5374758000002 706.5076905999999 C 642.9891360000001 705.9067994999999 640.3902590000001 705.5855104 637.7839968000002 705.4790651 C 640.7857058000002 702.9052125999999 643.7241823000002 700.2319338 646.5895998000002 697.4952394 C 648.5471804000002 698.5076905999999 650.5842897000002 699.3117067 652.7409670000002 699.3792725999999 C 653.9960940000002 699.4185792 655.2477419000002 699.2048951999999 656.4569094000002 698.8602295999999 C 660.3771365000002 697.7429811 663.7976076000002 695.3000488999999 667.2544558000002 693.0773317 C 670.7113040000002 690.8546145 674.6290896000002 688.3939211 678.6898196000002 688.1318361 C 677.0891726000002 687.3355104 675.4841922000002 686.5372316 673.8082888000002 685.9377443 C 671.9030154000002 685.2561647 669.9207156000002 684.8367922 667.9270022000003 684.5643312 C 665.0596316000003 684.1725465 662.1610110000003 684.1274416 659.2817996000003 684.3454591 C 660.4727176000004 683.0047609 661.6484988000003 681.652649 662.8028567000003 680.2883912 C 664.6151126000003 678.1458130999999 666.3866580000004 675.9483033 668.1289675000004 673.7247315 C 669.2815554000003 674.0275879 670.4509279000004 674.1896363 671.6304323000004 674.0648193999999 C 672.6234133000004 673.9597779 673.5886232000004 673.6552125 674.5073244000004 673.2520752999999 C 677.4859621000004 671.9447632999999 679.9397585000004 669.6449585999999 682.4436647000003 667.5150757999999 C 684.9478761000004 665.3851929999998 687.7916261000004 663.0174561999999 690.9656984000003 662.3701782999999 C 689.6254884000003 661.9150391 688.2817995000003 661.4588012999999 686.9016725000002 661.1671753999999 C 685.3327638000003 660.8356934999999 683.7290040000003 660.7194824999999 682.1309205000002 660.7206421999999 C 680.5250855000003 660.7217407999999 678.9240724000002 660.8643189999999 677.3369142000003 661.1037598999999 C 679.7449953000003 657.5509644999998 682.0692750000003 653.9156494999999 684.2800905000003 650.2230225999999 C 685.5074465000002 650.4400635999999 686.7403566000003 650.5101319999999 687.9492800000003 650.2384645 C 688.8390505000003 650.0385133 689.6841433000003 649.6606446999999 690.4778445000003 649.1979981999999 C 693.0508425000003 647.6980591999999 695.0527957000003 645.3527833999999 697.1166384000003 643.1563111999999 C 699.1806643000003 640.9598389999999 701.5296023000003 638.5118409999999 704.3430788000003 637.5902100999999 C 703.0850832000003 637.3182373999999 701.8239138000002 637.0457154999999 700.5455324000003 636.9263917 C 699.0922243000003 636.7907104999999 697.6280519000003 636.8541871 696.1802370000003 637.0234376 C 694.3001100000002 637.2432862 692.4490358000003 637.6679687999999 690.6414797000002 638.2422485999999 C 692.1104128000002 635.0130005999999 693.4774782000002 631.7506715 695.0460207000002 628.3241578 C 695.0820925000002 628.2455444999999 695.1128542000002 628.1692505999999 695.1486818000002 628.0908204 C 696.5302126000001 628.2802125 697.9152834000001 628.3148805 699.2367555000002 627.9064332 C 700.0575563000002 627.6527711 700.8245851000001 627.2353517 701.5374147000002 626.7420655000001 C 703.8486940000003 625.1431885000001 705.5673219000003 622.7928467 707.3541261000003 620.5777589 C 709.1409913000002 618.3626710000001 711.1778566000003 615.8901979000001 713.7538453000003 614.8163453000001 C 712.5557862000003 614.654297 711.3544923000003 614.4920045000001 710.1477662000003 614.4747926000001 C 708.7756349000003 614.4552003000001 707.4069825000004 614.6233522000001 706.0606690000003 614.8896486000001 C 703.8967896000003 615.3176882000001 701.7895508000003 616.0206911000001 699.7755738000003 616.9442140000001 C 700.7239991000004 614.4544679 701.6474000000003 611.9404298000001 702.5688477000003 609.3216554 C 703.0534058000003 607.9450075000001 703.4921265000004 606.5776368 703.9237671000003 605.2102662000001 C 705.0676270000004 605.0814210000001 706.1928101000003 604.8429566000001 707.1665039000003 604.2288819000001 C 707.7257080000003 603.8763428000002 708.2151489000003 603.4132081000001 708.6508179000003 602.9049073000001 C 710.0634766000003 601.2568360000001 710.9010620000004 599.1712037000001 711.8136597000004 597.1720582000002 C 712.7261963000003 595.1728517000001 713.7763672000003 592.9329835000002 715.4804077000003 591.6206666000002 C 714.5667114000004 591.7410890000002 713.6506348000004 591.8618775000002 712.7568970000003 592.0913697000002 C 711.7410889000004 592.3521119000002 710.7620240000003 592.7512818000002 709.8174439000003 593.2186280000002 C 708.7751465000002 593.7342530000002 707.7755738000003 594.3397828000002 706.8240357000003 595.0189820000002 C 707.3195191000003 593.1152344000002 707.8080445000003 591.1982423000002 708.2998047000003 589.2479249000002 C 708.6182251 587.9840698 708.8985596 586.6444702 709.1575317 585.2670898 z" stroke-linecap="round" />
</g>
		<g transform="matrix(0.5493624755968856 0 0 0.5493624755968856 -55.29434862992423 97.01830513532539)"  >
<path style="stroke: none; stroke-width: 1; stroke-dasharray: none; stroke-linecap: butt; stroke-dashoffset: 0; stroke-linejoin: miter; stroke-miterlimit: 4; fill: rgb(242,212,155); fill-rule: nonzero; opacity: 1;"  paint-order="stroke"  transform=" translate(-398.9324106145083, -676.2372423277333)" d="M 290.0116577 585.2670898 C 289.2697754 585.1260376 288.5509643 584.9079589 287.9229431 584.4819336 C 287.4889526 584.1876831000001 287.1130676 583.8077393000001 286.7807312 583.3935547000001 C 285.7034912 582.0504151000001 285.0917664 580.3764038 284.4186707 578.7688599 C 283.7453919 577.1611939000001 282.969574 575.359314 281.6532288 574.2742310000001 C 282.37347420000003 574.3942261000001 283.09552010000004 574.5145874000001 283.7970887 574.7203370000001 C 284.5947572 574.9542237000001 285.35968030000004 575.2966920000001 286.0958863 575.6921998000001 C 287.7609254 576.5869142000001 289.2813721 577.7666627000001 290.59704600000003 579.1579591000001 C 291.38821420000005 577.3720704000001 292.439026 575.7103273000001 293.71673590000006 574.2631837000001 C 294.28195200000005 573.6228639000001 294.8914796000001 573.0219117000001 295.56619270000004 572.5110475000001 C 296.15991220000006 572.0617067000002 296.7999879 571.6851198000002 297.43847660000006 571.3096925000001 C 296.5484620000001 572.8096925000001 296.3955078000001 574.786316 296.2772828000001 576.5427858 C 296.1587830000001 578.2991945 296.1196290000001 580.0957033000001 295.5365907000001 581.7510378000001 C 295.3567201000001 582.2615358 295.1250612000001 582.7557985000001 294.81137100000007 583.190552 C 294.2921754000001 583.9103396 293.5768434000001 584.4207156 292.81628430000006 584.8600466 C 293.2502137000001 586.3388064000001 293.65374770000005 587.7651369 293.9857484000001 589.0828249 C 294.5829164000001 591.4519045 295.2241822000001 593.6379396 295.9023439000001 595.7667849 C 296.7267152000001 594.0911256999999 297.7348634000001 592.5142824999999 298.9144899000001 591.0883791 C 299.6028444000001 590.2562868 300.3485414000001 589.4719851 301.1802980000001 588.7985842 C 301.9120180000001 588.2061159000001 302.7050783000001 587.7036135000001 303.4963075000001 587.2024538000001 C 302.4316713000001 589.1331179 302.31634530000014 591.6332399 302.2357179000001 593.8542482 C 302.1552430000001 596.0751955000001 302.17617810000013 598.3432008 301.5053102000001 600.4564821 C 301.2983400000001 601.1083376 301.0251771000001 601.7418215 300.6463319000001 602.3038332 C 300.14877330000013 603.0421755 299.4908754000001 603.6210939 298.7706300000001 604.1239016 C 299.1635743000001 605.2259524 299.5622865000001 606.3438722999999 299.9726869000001 607.5102541 C 300.7342225000001 609.6745607 301.6717225000001 611.8791506 302.6787416000001 614.0869143 C 303.1696168000001 612.3066408999999 303.7933656000001 610.5661623 304.5828554000001 608.9050906 C 305.19589250000007 607.6156619 305.8964235000001 606.3668825999999 306.7410890000001 605.2288211 C 307.4841615000001 604.2277835 308.3335267000001 603.3190921 309.1806642000001 602.4130252 C 308.4352418000001 605.2215579 309.0738527000001 608.4241946 309.6691286000001 611.2615359 C 310.26440450000007 614.0988772000001 311.00329610000006 616.9609378 310.81500260000007 619.8651126 C 310.75683610000004 620.7608646 310.6089479000001 621.6562503 310.3043825000001 622.4974979 C 309.8634340000001 623.7160648 309.1175539000001 624.7591556 308.2603762000001 625.716431 C 308.4468081000001 626.1134646999999 308.6392214000001 626.5145877 308.8189394000001 626.9070438 C 310.2087709000001 629.9429935 311.64227310000007 632.4971317 313.1408693000001 635.0111698 C 313.5202333000001 633.2084964999999 314.03192150000007 631.4357914 314.69781510000007 629.7238163 C 315.24902360000004 628.306702 315.89645400000006 626.9254765 316.70504780000005 625.6493534 C 317.41638200000006 624.5267948 318.2474978 623.4932865 319.07662980000003 622.4626469 C 318.50073260000005 625.4996952 319.4227602 628.8381962 320.27108780000003 631.7935185 C 321.11907970000004 634.7487797 322.12130750000006 637.7182622 322.1439821 640.809998 C 322.1508791 641.7636113 322.0623781 642.7243046 321.8038637 643.6408696 C 321.4741823 644.8094487 320.8853762 645.8548589 320.17956560000005 646.8292240999999 C 322.58514420000006 650.8440555999999 325.12890640000006 654.7901006 327.77096570000003 658.6286015 C 327.9338685 656.1504520999999 328.31268320000004 653.686707 328.96194470000006 651.2932132999999 C 329.39932260000006 649.6809695999999 329.94573990000004 648.0954594 330.67996230000006 646.6040042999999 C 331.32583630000005 645.2921147 332.11270160000004 644.06189 332.8977052000001 642.8350224 C 332.62063610000007 646.2139897 334.01159680000006 649.7315067999999 335.27755750000006 652.841248 C 336.54367080000003 655.9509892 337.97924820000003 659.0566411 338.36099260000003 662.419373 C 338.4787294 663.4565434 338.49313370000004 664.5135501999999 338.3172304 665.5439458 C 338.02761860000004 667.2382817 337.24472060000005 668.7639775 336.31121840000003 670.2034917 C 337.8523561 672.1563115 339.41360490000005 674.0899663 341.01004040000004 675.9773564 C 342.0852052 677.2479863 343.17779550000006 678.5090947 344.285431 679.7587285 C 344.13061530000004 676.7645878999999 344.2230531 673.7553105 344.6416017 670.7839359999999 C 344.93508920000005 668.7016606 345.3685914 666.6339725999999 346.0513917 664.6513676 C 346.651764 662.9072269999999 347.44088750000003 661.2407231 348.2283021 659.5788577999999 C 348.4111024 663.8331913 350.6964417 667.9743045999999 352.7622071 671.6291507999999 C 354.828003 675.2839969999999 357.1045838 678.9047244999999 358.1066895 683.0260013999999 C 358.4157105 684.2971805999999 358.5992127 685.6107791999999 358.5405884 686.9237674999999 C 358.448761 688.9901736999999 357.77148439999996 690.9427493999999 356.8902893 692.8179325 C 359.9523621 695.7379154 363.1039429 698.5769657 366.3217773 701.3023685 C 365.8092651 698.0703738999999 365.6029357 694.7835085999999 365.77380370000003 691.506409 C 365.88348390000004 689.4061282 366.1339416 687.3069461 366.64022830000005 685.2683718999999 C 367.08547980000003 683.4750979999999 367.7255554 681.7409061 368.36419680000006 680.0113528999999 C 368.9199219000001 684.2272952999999 371.56045530000006 688.1284794 373.9396057000001 691.5667727999999 C 376.31893920000005 695.0050051999998 378.9052124000001 698.3890383999999 380.26541140000006 702.3938601999998 C 380.68518070000005 703.6290286999998 380.98318480000006 704.9185793999999 381.0401001000001 706.2307131999999 C 381.12533570000005 708.1923220999998 380.6717224000001 710.1018069999999 380.0148621000001 711.9603274999998 C 381.7982178000001 713.2354128999998 383.5911255000001 714.4912722999999 385.4007569000001 715.7012942999999 C 387.7011109000001 717.2387088999999 390.0479432000001 718.7245486999999 392.4158936000001 720.1740115999999 C 390.86685190000014 715.9501345999998 389.8614502000001 711.5046389999999 389.47836310000014 706.9895022999999 C 389.28555300000016 704.7186282999999 389.24450690000015 702.4260867999999 389.4875184000001 700.1571658999999 C 389.70108040000014 698.1612552999999 390.1327210000001 696.1972049999998 390.5636292000001 694.2384646999999 C 391.7842408000001 698.6712039999999 395.1998597000001 702.4285891999999 398.2659913000001 705.7318118999999 C 401.3321534000001 709.0350955999999 404.6128541000001 712.2465213999999 406.6672364000001 716.3225100999999 C 407.3008424000001 717.5796512 407.8118592000001 718.9147341999999 408.0671082000001 720.3131716999999 C 408.56356820000013 723.0316775999999 408.0731202000001 725.8028567999999 407.37295540000014 728.5101931999999 C 411.70767220000016 730.6922610999999 416.1295167000001 732.7329104999999 420.58010870000015 734.5905154999999 C 420.5807191000002 734.5897831 420.58023080000015 734.5903933999999 420.58084110000016 734.589661 C 418.09304810000015 730.035767 416.1962891000002 725.1256717 415.01226810000014 720.0200808999999 C 414.42254640000016 717.4786991 414.0019226000001 714.8855593999999 413.90802010000016 712.2684939999999 C 413.82525640000017 709.9663089 413.9956361000002 707.6612551999999 414.1658936000002 705.3624270999999 C 416.2765198000002 710.1725466999999 420.7724610000002 713.8242800999999 424.7969056000002 717.0233767999998 C 428.82135020000015 720.2223513999999 433.0747071000002 723.2789919999998 436.0751038000002 727.5352786999998 C 437.0005799000002 728.8480838999998 437.7993164000002 730.2711795999999 438.3175965000002 731.8118899999998 C 439.3227540000002 734.7991946999998 439.2204285000002 738.0216067999999 438.8682557000002 741.2097170999998 C 438.8703614000002 741.2129519999999 438.8717347000002 741.2150271999998 438.8738404000002 741.2182619999998 C 445.1879273000002 743.1699221999997 451.67620860000017 744.8182375999997 458.1652222000002 746.1434328999998 C 454.2779541000002 741.5292971999997 450.9653321000002 736.3853151999998 448.3948670000002 730.8474123999997 C 447.0605469000002 727.9723513999998 445.9155274000002 724.9898073999997 445.1558533000002 721.8901979999997 C 444.4876099000002 719.1635744999998 444.1218567000002 716.3649904999997 443.7576905000002 713.5738527999997 C 447.4751893000002 718.7459718999997 453.7635499000002 721.8889772999997 459.3751832000002 724.6192018999997 C 464.9868165000002 727.3493654999996 470.8376466000002 729.8473512999997 475.4840089000002 734.1173707999997 C 476.91711440000023 735.4344483999996 478.22576920000023 736.9174195999997 479.2275392000002 738.6166993999997 C 481.16253680000017 741.8988648999997 481.8389894000002 745.7571412999997 482.2064821000002 749.6439210999997 C 482.20724500000017 749.6446534999997 482.2077333000002 749.6450807999997 482.2085268000002 749.6458131999997 C 484.63342300000016 749.7492677999996 487.1492311000002 749.7943727999997 489.7451784000002 750.3932496999997 C 493.9792177000002 751.3702393999997 498.0056764000002 753.4967042999997 501.7126161000002 756.7137452999997 C 507.9629823000002 762.1395264999996 512.8559572000003 769.0651246999997 515.9890138000002 776.8837891999997 C 516.6404420000002 778.5093995999997 515.8106080000002 780.3566285999997 514.1695558000001 780.9680787999997 L 514.1695558000001 780.9680787999997 C 512.5893556000001 781.5568238999997 510.8337709000001 780.7807008999997 510.1992189000001 779.2183228999997 C 507.4441835000001 772.4350586999998 503.17813130000013 766.4259644999997 497.7436525000001 761.7087403999998 C 494.7955324000001 759.1497193999998 491.6421205000001 757.4699708999998 488.3712160000001 756.7153321999998 C 486.5710451000001 756.3004761999998 484.66494770000014 756.2244263999999 482.6454164000001 756.1439210999998 C 482.0911867000001 756.1223756999998 481.5270387000001 756.0995484999999 480.9568788000001 756.0695802999999 C 479.1680299000001 759.5252687999998 477.1048280000001 762.8342897999999 474.0883790000001 765.1109010999999 C 472.53033460000006 766.2868654999999 470.7696229000001 767.1422120999998 468.9555360000001 767.7951051999999 C 463.0736695000001 769.9122316999999 456.73855600000013 769.9182740999998 450.53808600000013 770.2328492999999 C 444.33746340000016 770.5475465999999 437.35803230000016 770.9773560999998 431.99877940000016 774.2933350999999 C 433.37402350000013 771.8579103 434.7532044000002 769.4161988999999 436.38516250000015 767.1600342999999 C 438.24053970000017 764.5950318999999 440.40820330000014 762.2899170999999 442.7107545000001 760.1586304999998 C 446.1387330000001 756.9859009999999 449.8917543000001 754.2097168999999 453.8681031000001 751.8461914999998 C 448.4153748000001 750.6466064999998 442.9806214000001 749.2319946999999 437.6621094000001 747.6058350999998 C 437.1024475000001 747.4346924999998 436.5444947000001 747.2463990999998 435.9850769000001 747.0701294999998 C 434.20736690000007 749.1256714999997 432.2473450000001 750.9759522999998 429.8448486000001 752.0780029999997 C 428.40847780000007 752.7369384999997 426.8630066000001 753.1027832999997 425.3083496000001 753.2970581999997 C 420.2684021000001 753.9270019999997 415.2153320000001 752.7860718999997 410.2185669000001 751.9163208999997 C 405.2218323000001 751.0466919999998 399.5848084000001 750.1282959999998 394.7636719000001 751.8118286999998 C 396.2623596000001 750.1121826999997 397.7654724000001 748.4082031999998 399.43933110000006 746.8983765999998 C 401.34237680000007 745.1818848999998 403.45172120000007 743.7298584999998 405.63989260000005 742.4412842999998 C 408.19943240000003 740.9340210999998 410.8789368000001 739.6587525999997 413.63638310000005 738.6110230999998 C 410.20739750000007 737.0815430999997 406.80993660000007 735.4503174999998 403.4645386 733.7396241999998 C 401.881836 735.0158692999997 400.1863098 736.0939332999998 398.27197270000005 736.6365968999997 C 396.9548035 737.0100099999997 395.58016970000006 737.1159669999997 394.2188416000001 737.0728151999997 C 389.80545050000006 736.9329836999997 385.60000620000005 735.2646486999997 381.40927130000006 733.8377687999997 C 377.21853640000006 732.4110109999997 372.48330690000006 730.8554079999997 368.1277466000001 731.6535646999997 C 369.6272583000001 730.3913576999997 371.13101200000006 729.1260377999997 372.7577515000001 728.0512697999998 C 374.6069947000001 726.8293459999998 376.6010132000001 725.8633425999998 378.6426697000001 725.0488893999998 C 380.7020569000001 724.2276002999998 382.8180542000001 723.5727540999998 384.9650879000001 723.0659181999998 C 383.98818970000013 722.4357911999998 383.00857540000015 721.8085939999999 382.04446410000014 721.1641237999999 C 380.10894770000016 719.8698122999998 378.19192500000014 718.5247804999999 376.28588870000016 717.1585085999999 C 374.34771730000017 718.4279787999999 372.30596930000013 719.5026857999999 370.0640869000002 719.7897951999998 C 368.8168335000002 719.9496462999998 367.55084230000017 719.8573000999999 366.3158569000002 719.6306154999999 C 362.3116150000002 718.8957521999998 358.6886902000002 716.7937013999999 355.0490722000002 714.9141847999998 C 351.40945430000016 713.0347902999998 347.2896423000002 710.9628908999998 343.22012320000016 711.0925294999998 C 344.7451171000002 710.1461183999999 346.2744445000002 709.1974488999998 347.8918456000002 708.4398194999999 C 349.7304076000002 707.5783082999999 351.6687926000002 706.9704590999999 353.63171380000017 706.5076905999999 C 356.1800842000002 705.9067994999999 358.7789306000002 705.5855104 361.3851928000002 705.4790651 C 358.3835449000002 702.9052125999999 355.4450378000002 700.2319338 352.5796203000002 697.4952394 C 350.6220397000002 698.5076905999999 348.5849609000002 699.3117067 346.42825310000023 699.3792725999999 C 345.17309560000024 699.4185792 343.92147820000025 699.2048951999999 342.7123107000002 698.8602295999999 C 338.7920531000002 697.7429811 335.3715819000002 695.3000488999999 331.9147338000002 693.0773317 C 328.4578857000002 690.8546145 324.5401305000002 688.3939211 320.4793700000002 688.1318361 C 322.0800475000002 687.3355104 323.6850280000002 686.5372316 325.3609618000002 685.9377443 C 327.26620470000023 685.2561647 329.2484740000002 684.8367922 331.2422179000002 684.5643312 C 334.1096190000002 684.1725465 337.00820910000016 684.1274416 339.8873900000002 684.3454591 C 338.69653310000024 683.0047609 337.5207213000002 681.652649 336.3663329000002 680.2883912 C 334.5540770000002 678.1458130999999 332.7825621000002 675.9483033 331.0402526000002 673.7247315 C 329.8876342000002 674.0275879 328.7182616000002 674.1896363 327.5387878000002 674.0648193999999 C 326.54577630000017 673.9597779 325.5805664000002 673.6552125 324.6618652000002 673.2520752999999 C 321.6832275000002 671.9447632999999 319.22943110000017 669.6449585999999 316.7255554000002 667.5150757999999 C 314.2213440000002 665.3851929999998 311.3775940000002 663.0174561999999 308.2035217000002 662.3701782999999 C 309.5437011000002 661.9150391 310.88742060000015 661.4588012999999 312.26754760000017 661.1671753999999 C 313.8364563000002 660.8356934999999 315.44021610000016 660.7194824999999 317.0382996000002 660.7206421999999 C 318.6441040000002 660.7217407999999 320.2451477000002 660.8643189999999 321.8322754000002 661.1037598999999 C 319.4241943000002 657.5509644999998 317.0999451000002 653.9156494999999 314.8890991000002 650.2230225999999 C 313.6617431000002 650.4400635999999 312.42883300000017 650.5101319999999 311.21990960000016 650.2384645 C 310.3302001000002 650.0385133 309.4850768000002 649.6606446999999 308.69137570000015 649.1979981999999 C 306.11837770000017 647.6980591999999 304.11642450000016 645.3527833999999 302.05255120000015 643.1563111999999 C 299.98855580000014 640.9598389999999 297.63958730000013 638.5118409999999 294.82614130000013 637.5902100999999 C 296.08413690000015 637.3182373999999 297.3453063000001 637.0457154999999 298.6236877000001 636.9263917 C 300.0769653000001 636.7907104999999 301.5411377000001 636.8541871 302.98901360000013 637.0234376 C 304.8690795000001 637.2432862 306.72015370000014 637.6679687999999 308.52770990000016 638.2422485999999 C 307.05883780000016 635.0130005999999 305.6917419000002 631.7506715 304.12316890000017 628.3241578 C 304.08709710000016 628.2455444999999 304.0563354000002 628.1692505999999 304.02053830000017 628.0908204 C 302.63900750000016 628.2802125 301.25396730000017 628.3148805 299.9324341000002 627.9064332 C 299.1116638000002 627.6527711 298.3446655000002 627.2353517 297.6318054000002 626.7420655000001 C 295.32052610000017 625.1431885000001 293.60189820000016 622.7928467 291.8150635000002 620.5777589 C 290.0282288000002 618.3626711000001 287.9913635000002 615.8901979000001 285.4153443000002 614.8163453000001 C 286.6134339000002 614.654297 287.8146973000002 614.4920045000001 289.0214844000002 614.4747926000001 C 290.3935547000002 614.4552003000001 291.7622681000002 614.6233522000001 293.10852050000017 614.8896486000001 C 295.27246090000017 615.3176882000001 297.3796692000002 616.0206911000001 299.39361570000017 616.9442140000001 C 298.4451904000002 614.4544679 297.52182000000016 611.9404298000001 296.6003418000002 609.3216554 C 296.1158142000002 607.9450075000001 295.6770935000002 606.5776368 295.2454834000002 605.2102662000001 C 294.10156250000017 605.0814210000001 292.9764404000002 604.8429566000001 292.00268550000015 604.2288819000001 C 291.44351190000015 603.8763428000002 290.95407100000017 603.4132081000001 290.51837150000017 602.9049073000001 C 289.1057433000002 601.2568360000001 288.2681274000002 599.1712037000001 287.3555602000002 597.1720582000002 C 286.4430236000002 595.1728517000001 285.3928222000002 592.9329835000002 283.6888122000002 591.6206666000002 C 284.6024780000002 591.7410890000002 285.5185546000002 591.8618775000002 286.4122924000002 592.0913697000002 C 287.4281310000002 592.3521119000002 288.40716540000017 592.7512818000002 289.3517760000002 593.2186280000002 C 290.3940734000002 593.7342530000002 291.3936461000002 594.3397828000002 292.3451842000002 595.0189820000002 C 291.8496703000002 593.1152344000002 291.36117540000015 591.1982423000002 290.86941520000016 589.2479249000002 C 290.5509644 587.9840698 290.2706299 586.6444702 290.0116577 585.2670898 z" stroke-linecap="round" />
</g>
</g>
</g>
<g transform="matrix(1.9211538461538462 0 0 1.9211538461538462 639.0870933154351 496.31465196642995)" id="text-logo"  >
<g style=""  paint-order="stroke"   >
		<g transform="matrix(1 0 0 1 0 0)" id="text-logo-path-0"  >
<path style="stroke: none; stroke-width: 0; stroke-dasharray: none; stroke-linecap: butt; stroke-dashoffset: 0; stroke-linejoin: miter; stroke-miterlimit: 4; fill: rgb(242,212,155); fill-rule: nonzero; opacity: 1;"  paint-order="stroke"  transform=" translate(-113.685, 20.925)" d="M 29.32 -39.71 L 29.32 -14.36 L 25.41 -14.36 L 25.41 -43.34 L 49.45 -43.34 L 49.45 -14.36 L 45.43 -14.36 L 45.43 -39.71 L 29.32 -39.71 Z M 22.33 -6.11 L 18.81 -3.58 Q 18.21 -5.45 17.21 -7.62 Q 16.23 -9.79 14.96 -12.21 L 14.96 -12.21 Q 10.84 -3.41 5.17 1.93 L 5.17 1.93 Q 4.62 1.21 3.74 0.3 Q 2.86 -0.6 2.15 -1.16 L 2.15 -1.16 Q 5.12 -3.79 7.75 -7.75 Q 10.39 -11.71 12.48 -16.72 L 12.48 -16.72 Q 10.39 -20.35 8.06 -23.93 Q 5.72 -27.5 3.3 -30.64 L 3.3 -30.64 L 6.43 -32.67 Q 8.42 -30.03 10.42 -27.2 Q 12.43 -24.36 14.3 -21.39 L 14.3 -21.39 Q 15.56 -25.19 16.58 -29.29 Q 17.6 -33.38 18.21 -37.84 L 18.21 -37.84 L 3.08 -37.84 L 3.08 -41.74 L 19.2 -41.74 L 19.96 -41.91 L 22.55 -41.14 Q 21.78 -34.16 20.35 -28.16 Q 18.92 -22.16 17 -17 L 17 -17 Q 18.75 -13.97 20.13 -11.19 Q 21.5 -8.42 22.33 -6.11 L 22.33 -6.11 Z M 43.29 0.06 L 47.35 0.06 Q 48.02 0.06 48.43 -0.3 Q 48.84 -0.66 49.09 -1.65 Q 49.34 -2.64 49.47 -4.46 Q 49.61 -6.27 49.66 -9.19 L 49.66 -9.19 Q 50.44 -8.58 51.34 -8.22 Q 52.25 -7.87 53.02 -7.65 L 53.02 -7.65 Q 52.85 -4.4 52.58 -2.31 Q 52.3 -0.22 51.73 1.02 Q 51.15 2.25 50.1 2.72 Q 49.06 3.19 47.3 3.19 L 47.3 3.19 L 42.68 3.19 Q 39.93 3.19 38.75 2.23 Q 37.56 1.26 37.56 -1.43 L 37.56 -1.43 L 37.56 -13.92 Q 36.85 -11.44 35.67 -8.96 Q 34.48 -6.49 32.64 -4.18 Q 30.8 -1.87 28.21 0.25 Q 25.63 2.37 22.16 4.18 L 22.16 4.18 Q 22 3.85 21.7 3.44 Q 21.39 3.02 21.04 2.58 Q 20.68 2.15 20.32 1.79 Q 19.96 1.43 19.64 1.21 L 19.64 1.21 Q 24.8 -1.43 27.86 -4.59 Q 30.91 -7.75 32.53 -11.14 Q 34.16 -14.52 34.62 -17.96 Q 35.09 -21.39 35.09 -24.59 L 35.09 -24.59 L 35.09 -35.09 L 38.94 -35.09 L 38.94 -24.53 Q 38.94 -22.27 38.72 -19.91 Q 38.5 -17.55 37.9 -15.07 L 37.9 -15.07 L 41.36 -15.07 L 41.36 -1.81 Q 41.36 -0.71 41.77 -0.33 Q 42.19 0.06 43.29 0.06 L 43.29 0.06 Z M 83.88 -38.23 L 80.96 -36.02 Q 80.47 -36.8 79.69 -37.73 Q 78.92 -38.66 78.02 -39.66 Q 77.11 -40.65 76.09 -41.61 Q 75.08 -42.57 74.14 -43.4 L 74.14 -43.4 L 76.89 -45.32 Q 77.88 -44.55 78.9 -43.64 Q 79.91 -42.73 80.85 -41.8 Q 81.78 -40.87 82.58 -39.93 Q 83.38 -38.99 83.88 -38.23 L 83.88 -38.23 Z M 62.76 -42.02 L 65.23 -44.38 Q 66.22 -43.67 67.29 -42.82 Q 68.36 -41.97 69.41 -41.09 Q 70.45 -40.2 71.34 -39.38 Q 72.22 -38.55 72.82 -37.84 L 72.82 -37.84 L 70.18 -35.2 Q 69.63 -35.91 68.78 -36.8 Q 67.92 -37.67 66.94 -38.58 Q 65.94 -39.49 64.84 -40.4 Q 63.74 -41.3 62.76 -42.02 L 62.76 -42.02 Z M 108.41 -43.23 L 108.41 -0.55 Q 108.41 1.16 107.99 2.06 Q 107.58 2.97 106.48 3.41 L 106.48 3.41 Q 105.38 3.85 103.48 3.96 Q 101.59 4.07 98.67 4.07 L 98.67 4.07 Q 98.5 3.3 98.17 2.31 Q 97.84 1.32 97.46 0.55 L 97.46 0.55 Q 99.66 0.66 101.45 0.66 Q 103.23 0.66 103.84 0.6 L 103.84 0.6 Q 104.94 0.6 104.94 -0.49 L 104.94 -0.49 L 104.94 -39.71 L 86.13 -39.71 L 86.13 -43.23 L 108.41 -43.23 Z M 103.29 -4.34 L 101.15 -2.15 Q 100.48 -2.97 99.58 -3.93 Q 98.67 -4.9 97.6 -5.94 Q 96.53 -6.99 95.34 -8 Q 94.16 -9.02 92.95 -10.01 L 92.95 -10.01 L 92.95 0.77 L 89.65 0.77 L 89.65 -10.18 Q 87.67 -7.54 85.22 -5.2 Q 82.78 -2.86 80.41 -1.43 L 80.41 -1.43 Q 80.03 -2.04 79.39 -2.75 Q 78.76 -3.46 78.16 -3.9 L 78.16 -3.9 Q 80.63 -5.22 83.16 -7.4 Q 85.69 -9.57 87.61 -12.04 L 87.61 -12.04 L 80.96 -12.04 L 80.96 -26.13 L 89.7 -26.13 L 89.7 -29.7 L 80.36 -29.7 L 80.36 -32.67 L 89.7 -32.67 L 89.7 -36.74 L 93.06 -36.74 L 93.06 -32.67 L 101.86 -32.67 L 101.86 -29.7 L 93.06 -29.7 L 93.06 -26.13 L 101.09 -26.13 L 101.09 -12.04 L 94.88 -12.04 Q 97.3 -10.18 99.63 -8.09 Q 101.97 -6 103.29 -4.34 L 103.29 -4.34 Z M 73.53 4.07 L 73.53 -34.16 L 77.16 -34.16 L 77.16 4.07 L 73.53 4.07 Z M 70.56 -23.93 L 68.2 -21.07 Q 67.59 -21.73 66.66 -22.52 Q 65.72 -23.32 64.65 -24.14 Q 63.58 -24.97 62.42 -25.77 Q 61.27 -26.57 60.23 -27.23 L 60.23 -27.23 L 62.48 -29.75 Q 63.52 -29.15 64.68 -28.41 Q 65.84 -27.66 66.94 -26.87 Q 68.03 -26.07 68.97 -25.33 Q 69.91 -24.59 70.56 -23.93 L 70.56 -23.93 Z M 83.55 -23.48 L 83.55 -14.74 L 89.92 -14.74 L 89.92 -23.48 L 83.55 -23.48 Z M 98.4 -14.74 L 98.4 -23.48 L 92.62 -23.48 L 92.62 -14.74 L 98.4 -14.74 Z M 94.98 -15.35 L 93.22 -16 Q 93.94 -17.38 94.63 -19.3 Q 95.31 -21.23 95.75 -22.66 L 95.75 -22.66 L 97.84 -22 Q 97.13 -20.24 96.41 -18.43 Q 95.7 -16.61 94.98 -15.35 L 94.98 -15.35 Z M 84.97 -22.11 L 86.9 -22.61 Q 87.5 -21.01 88 -19.17 Q 88.5 -17.32 88.77 -16 L 88.77 -16 L 86.68 -15.35 Q 86.46 -16.72 85.94 -18.59 Q 85.41 -20.46 84.97 -22.11 L 84.97 -22.11 Z M 64.84 2.48 L 61.38 0.39 Q 62.15 -1.16 63.06 -3.19 Q 63.97 -5.22 64.93 -7.45 Q 65.89 -9.68 66.8 -12.04 Q 67.7 -14.41 68.47 -16.61 L 68.47 -16.61 L 71.56 -14.52 Q 70.84 -12.48 69.99 -10.26 Q 69.14 -8.03 68.28 -5.8 Q 67.43 -3.58 66.55 -1.46 Q 65.67 0.66 64.84 2.48 L 64.84 2.48 Z M 167.86 -32.01 L 163.95 -32.01 Q 163.02 -25.19 161.43 -19.64 Q 159.83 -14.08 157.19 -9.63 L 157.19 -9.63 Q 159.5 -6.27 162.28 -3.66 Q 165.06 -1.04 168.57 0.55 L 168.57 0.55 Q 167.86 1.16 167.06 2.17 Q 166.26 3.19 165.77 3.96 L 165.77 3.96 Q 162.41 2.2 159.72 -0.3 Q 157.03 -2.81 154.82 -6 L 154.82 -6 Q 152.41 -2.86 149.35 -0.33 Q 146.3 2.2 142.28 4.24 L 142.28 4.24 Q 142.12 3.9 141.84 3.41 Q 141.57 2.92 141.24 2.39 Q 140.91 1.87 140.55 1.4 Q 140.19 0.94 139.87 0.6 L 139.87 0.6 Q 148 -3.14 152.51 -9.79 L 152.51 -9.79 Q 148.88 -16.61 146.8 -25.19 L 146.8 -25.19 Q 145.86 -23.38 144.95 -21.75 Q 144.05 -20.13 142.94 -18.7 L 142.94 -18.7 Q 142.45 -19.3 141.51 -20.27 Q 140.58 -21.23 139.87 -21.78 L 139.87 -21.78 Q 140.53 -22.66 141.16 -23.59 Q 141.79 -24.53 142.34 -25.63 L 142.34 -25.63 L 139.04 -23.82 Q 138.76 -24.42 138.49 -25.02 Q 138.22 -25.63 137.83 -26.34 L 137.83 -26.34 Q 132.28 -25.85 128.95 -25.52 Q 125.62 -25.19 123.78 -24.97 Q 121.94 -24.75 121.14 -24.59 Q 120.34 -24.42 119.9 -24.2 L 119.9 -24.2 L 119.9 -24.25 Q 119.73 -24.86 119.35 -26.07 Q 118.97 -27.28 118.64 -28.05 L 118.64 -28.05 Q 119.24 -28.16 119.84 -28.79 Q 120.45 -29.43 121.11 -30.41 L 121.11 -30.41 Q 121.44 -30.8 121.96 -31.63 Q 122.48 -32.45 123.14 -33.55 Q 123.81 -34.65 124.49 -35.97 Q 125.18 -37.29 125.84 -38.72 L 125.84 -38.72 L 118.53 -38.72 L 118.53 -42.46 L 142.89 -42.46 L 142.89 -38.72 L 130.29 -38.72 Q 128.97 -36.02 127.44 -33.47 Q 125.89 -30.91 124.3 -28.71 L 124.3 -28.71 L 135.96 -29.64 Q 135.19 -30.91 134.37 -32.23 Q 133.54 -33.55 132.77 -34.65 L 132.77 -34.65 L 135.85 -36.19 Q 136.78 -34.98 137.72 -33.55 Q 138.66 -32.12 139.53 -30.69 Q 140.41 -29.26 141.13 -27.94 Q 141.84 -26.62 142.34 -25.63 L 142.34 -25.63 Q 144.71 -29.81 146.35 -35.09 Q 148 -40.37 149.1 -46.04 L 149.1 -46.04 L 153.12 -45.32 Q 152.19 -40.31 150.81 -35.86 L 150.81 -35.86 L 167.86 -35.86 L 167.86 -32.01 Z M 149.6 -32.01 L 149.22 -30.96 Q 150.15 -26.18 151.53 -21.89 Q 152.9 -17.6 154.82 -13.8 L 154.82 -13.8 Q 156.69 -17.55 157.85 -22.05 Q 159 -26.57 159.78 -32.01 L 159.78 -32.01 L 149.6 -32.01 Z M 143.33 -7.04 L 143.5 -3.25 Q 140.14 -2.58 136.76 -1.98 Q 133.38 -1.38 130.16 -0.8 Q 126.94 -0.22 123.97 0.3 Q 121 0.82 118.53 1.26 L 118.53 1.26 L 117.86 -2.92 Q 120.12 -3.25 122.87 -3.69 Q 125.62 -4.13 128.75 -4.57 L 128.75 -4.57 L 128.75 -13.53 L 119.3 -13.53 L 119.3 -17.27 L 128.75 -17.27 L 128.75 -23.48 L 132.82 -23.48 L 132.82 -17.27 L 142.28 -17.27 L 142.28 -13.53 L 132.82 -13.53 L 132.82 -5.28 Q 135.47 -5.72 138.08 -6.16 Q 140.69 -6.6 143.33 -7.04 L 143.33 -7.04 Z M 225 -9.68 L 225 -6.21 L 176.55 -6.21 L 176.55 -9.68 L 184.36 -9.68 L 184.36 -34.38 L 197.56 -34.38 Q 197.72 -35.15 197.86 -36.02 Q 198 -36.91 198.11 -37.84 L 198.11 -37.84 L 178.09 -37.84 L 178.09 -41.36 L 198.6 -41.36 Q 198.77 -42.63 198.88 -43.84 Q 198.99 -45.05 199.1 -46.09 L 199.1 -46.09 L 203.44 -45.59 L 202.73 -41.36 L 223.63 -41.36 L 223.63 -37.84 L 202.13 -37.84 Q 201.8 -35.97 201.47 -34.38 L 201.47 -34.38 L 217.31 -34.38 L 217.31 -9.68 L 225 -9.68 Z M 213.24 -31.57 L 188.32 -31.57 L 188.32 -27.89 L 213.24 -27.89 L 213.24 -31.57 Z M 213.24 -22.11 L 213.24 -25.25 L 188.32 -25.25 L 188.32 -22.11 L 213.24 -22.11 Z M 213.24 -19.47 L 188.32 -19.47 L 188.32 -16.17 L 213.24 -16.17 L 213.24 -19.47 Z M 188.32 -13.53 L 188.32 -9.68 L 213.24 -9.68 L 213.24 -13.53 L 188.32 -13.53 Z M 205.87 -2.64 L 208.4 -5.28 Q 210.7 -4.57 213.04 -3.74 Q 215.38 -2.92 217.58 -2.04 Q 219.78 -1.16 221.76 -0.3 Q 223.74 0.55 225.22 1.26 L 225.22 1.26 L 221.93 4.13 Q 220.55 3.35 218.71 2.48 Q 216.87 1.59 214.78 0.71 Q 212.69 -0.17 210.43 -1.02 Q 208.18 -1.87 205.87 -2.64 L 205.87 -2.64 Z M 192.39 -5.12 L 195.97 -2.81 Q 194.31 -1.76 192.28 -0.74 Q 190.25 0.28 188.07 1.18 Q 185.9 2.09 183.65 2.89 Q 181.39 3.69 179.35 4.24 L 179.35 4.24 Q 178.86 3.63 178.03 2.81 Q 177.21 1.98 176.55 1.38 L 176.55 1.38 Q 178.64 0.82 180.87 0.06 Q 183.09 -0.71 185.24 -1.57 Q 187.38 -2.42 189.23 -3.33 Q 191.07 -4.24 192.39 -5.12 L 192.39 -5.12 Z" stroke-linecap="round" />
</g>
</g>
</g>
</svg>